<?xml version="1.0" encoding="UTF-8" standalone="no"?>
<svg xmlns="http://www.w3.org/2000/svg" viewBox="0 0 600 600">
  <!-- Départements de France métropolitaine -->
  <path id="01" d="M383,276 L390,270 L398,275 L405,268 L415,275 L420,270 L425,280 L418,290 L410,295 L400,290 L390,285 L383,276" />
  <path id="02" d="M300,120 L310,115 L320,120 L325,130 L320,140 L310,145 L300,140 L295,130 L300,120" />
  <path id="03" d="M330,250 L340,245 L350,250 L355,260 L350,270 L340,275 L330,270 L325,260 L330,250" />
  <path id="04" d="M400,350 L410,345 L420,350 L425,360 L420,370 L410,375 L400,370 L395,360 L400,350" />
  <path id="05" d="M380,330 L390,325 L400,330 L405,340 L400,350 L390,355 L380,350 L375,340 L380,330" />
  <path id="06" d="M430,330 L440,325 L450,330 L455,340 L450,350 L440,355 L430,350 L425,340 L430,330" />
  <path id="07" d="M350,320 L360,315 L370,320 L375,330 L370,340 L360,345 L350,340 L345,330 L350,320" />
  <path id="08" d="M330,100 L340,95 L350,100 L355,110 L350,120 L340,125 L330,120 L325,110 L330,100" />
  <path id="09" d="M280,380 L290,375 L300,380 L305,390 L300,400 L290,405 L280,400 L275,390 L280,380" />
  <path id="10" d="M350,150 L360,145 L370,150 L375,160 L370,170 L360,175 L350,170 L345,160 L350,150" />
  <path id="11" d="M320,370 L330,365 L340,370 L345,380 L340,390 L330,395 L320,390 L315,380 L320,370" />
  <path id="12" d="M310,320 L320,315 L330,320 L335,330 L330,340 L320,345 L310,340 L305,330 L310,320" />
  <path id="13" d="M380,380 L390,375 L400,380 L405,390 L400,400 L390,405 L380,400 L375,390 L380,380" />
  <path id="14" d="M220,150 L230,145 L240,150 L245,160 L240,170 L230,175 L220,170 L215,160 L220,150" />
  <path id="15" d="M330,290 L340,285 L350,290 L355,300 L350,310 L340,315 L330,310 L325,300 L330,290" />
  <path id="16" d="M260,280 L270,275 L280,280 L285,290 L280,300 L270,305 L260,300 L255,290 L260,280" />
  <path id="17" d="M230,280 L240,275 L250,280 L255,290 L250,300 L240,305 L230,300 L225,290 L230,280" />
  <path id="18" d="M300,220 L310,215 L320,220 L325,230 L320,240 L310,245 L300,240 L295,230 L300,220" />
  <path id="19" d="M300,290 L310,285 L320,290 L325,300 L320,310 L310,315 L300,310 L295,300 L300,290" />
  <path id="21" d="M370,180 L380,175 L390,180 L395,190 L390,200 L380,205 L370,200 L365,190 L370,180" />
  <path id="22" d="M160,180 L170,175 L180,180 L185,190 L180,200 L170,205 L160,200 L155,190 L160,180" />
  <path id="23" d="M300,260 L310,255 L320,260 L325,270 L320,280 L310,285 L300,280 L295,270 L300,260" />
  <path id="24" d="M270,310 L280,305 L290,310 L295,320 L290,330 L280,335 L270,330 L265,320 L270,310" />
  <path id="25" d="M400,180 L410,175 L420,180 L425,190 L420,200 L410,205 L400,200 L395,190 L400,180" />
  <path id="26" d="M370,310 L380,305 L390,310 L395,320 L390,330 L380,335 L370,330 L365,320 L370,310" />
  <path id="27" d="M260,150 L270,145 L280,150 L285,160 L280,170 L270,175 L260,170 L255,160 L260,150" />
  <path id="28" d="M280,180 L290,175 L300,180 L305,190 L300,200 L290,205 L280,200 L275,190 L280,180" />
  <path id="29" d="M130,180 L140,175 L150,180 L155,190 L150,200 L140,205 L130,200 L125,190 L130,180" />
  <path id="2A" d="M380,440 L390,435 L400,440 L405,450 L400,460 L390,465 L380,460 L375,450 L380,440" />
  <path id="2B" d="M380,410 L390,405 L400,410 L405,420 L400,430 L390,435 L380,430 L375,420 L380,410" />
  <path id="30" d="M350,350 L360,345 L370,350 L375,360 L370,370 L360,375 L350,370 L345,360 L350,350" />
  <path id="31" d="M280,350 L290,345 L300,350 L305,360 L300,370 L290,375 L280,370 L275,360 L280,350" />
  <path id="32" d="M260,350 L270,345 L280,350 L285,360 L280,370 L270,375 L260,370 L255,360 L260,350" />
  <path id="33" d="M240,320 L250,315 L260,320 L265,330 L260,340 L250,345 L240,340 L235,330 L240,320" />
  <path id="34" d="M340,370 L350,365 L360,370 L365,380 L360,390 L350,395 L340,390 L335,380 L340,370" />
  <path id="35" d="M190,180 L200,175 L210,180 L215,190 L210,200 L200,205 L190,200 L185,190 L190,180" />
  <path id="36" d="M280,230 L290,225 L300,230 L305,240 L300,250 L290,255 L280,250 L275,240 L280,230" />
  <path id="37" d="M260,210 L270,205 L280,210 L285,220 L280,230 L270,235 L260,230 L255,220 L260,210" />
  <path id="38" d="M370,280 L380,275 L390,280 L395,290 L390,300 L380,305 L370,300 L365,290 L370,280" />
  <path id="39" d="M380,210 L390,205 L400,210 L405,220 L400,230 L390,235 L380,230 L375,220 L380,210" />
  <path id="40" d="M240,350 L250,345 L260,350 L265,360 L260,370 L250,375 L240,370 L235,360 L240,350" />
  <path id="41" d="M280,200 L290,195 L300,200 L305,210 L300,220 L290,225 L280,220 L275,210 L280,200" />
  <path id="42" d="M350,280 L360,275 L370,280 L375,290 L370,300 L360,305 L350,300 L345,290 L350,280" />
  <path id="43" d="M340,310 L350,305 L360,310 L365,320 L360,330 L350,335 L340,330 L335,320 L340,310" />
  <path id="44" d="M200,210 L210,205 L220,210 L225,220 L220,230 L210,235 L200,230 L195,220 L200,210" />
  <path id="45" d="M300,190 L310,185 L320,190 L325,200 L320,210 L310,215 L300,210 L295,200 L300,190" />
  <path id="46" d="M290,320 L300,315 L310,320 L315,330 L310,340 L300,345 L290,340 L285,330 L290,320" />
  <path id="47" d="M260,330 L270,325 L280,330 L285,340 L280,350 L270,355 L260,350 L255,340 L260,330" />
  <path id="48" d="M340,340 L350,335 L360,340 L365,350 L360,360 L350,365 L340,360 L335,350 L340,340" />
  <path id="49" d="M230,210 L240,205 L250,210 L255,220 L250,230 L240,235 L230,230 L225,220 L230,210" />
  <path id="50" d="M220,120 L230,115 L240,120 L245,130 L240,140 L230,145 L220,140 L215,130 L220,120" />
  <path id="51" d="M330,130 L340,125 L350,130 L355,140 L350,150 L340,155 L330,150 L325,140 L330,130" />
  <path id="52" d="M360,130 L370,125 L380,130 L385,140 L380,150 L370,155 L360,150 L355,140 L360,130" />
  <path id="53" d="M220,180 L230,175 L240,180 L245,190 L240,200 L230,205 L220,200 L215,190 L220,180" />
  <path id="54" d="M370,110 L380,105 L390,110 L395,120 L390,130 L380,135 L370,130 L365,120 L370,110" />
  <path id="55" d="M370,130 L380,125 L390,130 L395,140 L390,150 L380,155 L370,150 L365,140 L370,130" />
  <path id="56" d="M170,210 L180,205 L190,210 L195,220 L190,230 L180,235 L170,230 L165,220 L170,210" />
  <path id="57" d="M390,110 L400,105 L410,110 L415,120 L410,130 L400,135 L390,130 L385,120 L390,110" />
  <path id="58" d="M330,210 L340,205 L350,210 L355,220 L350,230 L340,235 L330,230 L325,220 L330,210" />
  <path id="59" d="M290,90 L300,85 L310,90 L315,100 L310,110 L300,115 L290,110 L285,100 L290,90" />
  <path id="60" d="M280,120 L290,115 L300,120 L305,130 L300,140 L290,145 L280,140 L275,130 L280,120" />
  <path id="61" d="M240,150 L250,145 L260,150 L265,160 L260,170 L250,175 L240,170 L235,160 L240,150" />
  <path id="62" d="M270,90 L280,85 L290,90 L295,100 L290,110 L280,115 L270,110 L265,100 L270,90" />
  <path id="63" d="M330,270 L340,265 L350,270 L355,280 L350,290 L340,295 L330,290 L325,280 L330,270" />
  <path id="64" d="M240,380 L250,375 L260,380 L265,390 L260,400 L250,405 L240,400 L235,390 L240,380" />
  <path id="65" d="M260,380 L270,375 L280,380 L285,390 L280,400 L270,405 L260,400 L255,390 L260,380" />
  <path id="66" d="M320,390 L330,385 L340,390 L345,400 L340,410 L330,415 L320,410 L315,400 L320,390" />
  <path id="67" d="M410,130 L420,125 L430,130 L435,140 L430,150 L420,155 L410,150 L405,140 L410,130" />
  <path id="68" d="M420,150 L430,145 L440,150 L445,160 L440,170 L430,175 L420,170 L415,160 L420,150" />
  <path id="69" d="M360,260 L370,255 L380,260 L385,270 L380,280 L370,285 L360,280 L355,270 L360,260" />
  <path id="70" d="M390,150 L400,145 L410,150 L415,160 L410,170 L400,175 L390,170 L385,160 L390,150" />
  <path id="71" d="M350,230 L360,225 L370,230 L375,240 L370,250 L360,255 L350,250 L345,240 L350,230" />
  <path id="72" d="M250,180 L260,175 L270,180 L275,190 L270,200 L260,205 L250,200 L245,190 L250,180" />
  <path id="73" d="M390,290 L400,285 L410,290 L415,300 L410,310 L400,315 L390,310 L385,300 L390,290" />
  <path id="74" d="M410,290 L420,285 L430,290 L435,300 L430,310 L420,315 L410,310 L405,300 L410,290" />
  <path id="75" d="M290,140 L295,140 L300,145 L300,150 L295,155 L290,155 L285,150 L285,145 L290,140" />
  <path id="76" d="M240,120 L250,115 L260,120 L265,130 L260,140 L250,145 L240,140 L235,130 L240,120" />
  <path id="77" d="M300,150 L310,145 L320,150 L325,160 L320,170 L310,175 L300,170 L295,160 L300,150" />
  <path id="78" d="M270,150 L280,145 L290,150 L295,160 L290,170 L280,175 L270,170 L265,160 L270,150" />
  <path id="79" d="M240,250 L250,245 L260,250 L265,260 L260,270 L250,275 L240,270 L235,260 L240,250" />
  <path id="80" d="M260,110 L270,105 L280,110 L285,120 L280,130 L270,135 L260,130 L255,120 L260,110" />
  <path id="81" d="M290,350 L300,345 L310,350 L315,360 L310,370 L300,375 L290,370 L285,360 L290,350" />
  <path id="82" d="M270,340 L280,335 L290,340 L295,350 L290,360 L280,365 L270,360 L265,350 L270,340" />
  <path id="83" d="M400,370 L410,365 L420,370 L425,380 L420,390 L410,395 L400,390 L395,380 L400,370" />
  <path id="84" d="M370,350 L380,345 L390,350 L395,360 L390,370 L380,375 L370,370 L365,360 L370,350" />
  <path id="85" d="M210,250 L220,245 L230,250 L235,260 L230,270 L220,275 L210,270 L205,260 L210,250" />
  <path id="86" d="M260,250 L270,245 L280,250 L285,260 L280,270 L270,275 L260,270 L255,260 L260,250" />
  <path id="87" d="M280,270 L290,265 L300,270 L305,280 L300,290 L290,295 L280,290 L275,280 L280,270" />
  <path id="88" d="M390,130 L400,125 L410,130 L415,140 L410,150 L400,155 L390,150 L385,140 L390,130" />
  <path id="89" d="M330,180 L340,175 L350,180 L355,190 L350,200 L340,205 L330,200 L325,190 L330,180" />
  <path id="90" d="M400,160 L410,155 L420,160 L425,170 L420,180 L410,185 L400,180 L395,170 L400,160" />
  <path id="91" d="M290,160 L300,155 L310,160 L315,170 L310,180 L300,185 L290,180 L285,170 L290,160" />
  <path id="92" d="M280,140 L285,140 L290,145 L290,150 L285,155 L280,155 L275,150 L275,145 L280,140" />
  <path id="93" d="M295,140 L300,140 L305,145 L305,150 L300,155 L295,155 L290,150 L290,145 L295,140" />
  <path id="94" d="M295,150 L300,150 L305,155 L305,160 L300,165 L295,165 L290,160 L290,155 L295,150" />
  <path id="95" d="M280,130 L290,125 L300,130 L305,140 L300,150 L290,155 L280,150 L275,140 L280,130" />
  <path id="971" d="M150,480 L160,475 L170,480 L175,490 L170,500 L160,505 L150,500 L145,490 L150,480" />
  <path id="972" d="M180,480 L190,475 L200,480 L205,490 L200,500 L190,505 L180,500 L175,490 L180,480" />
  <path id="973" d="M210,480 L220,475 L230,480 L235,490 L230,500 L220,505 L210,500 L205,490 L210,480" />
  <path id="974" d="M240,480 L250,475 L260,480 L265,490 L260,500 L250,505 L240,500 L235,490 L240,480" />
  <path id="976" d="M270,480 L280,475 L290,480 L295,490 L290,500 L280,505 L270,500 L265,490 L270,480" />
  
  <!-- Légende -->
  <text x="150" y="450" font-family="Arial" font-size="12" fill="#111827">Cartographie des syndicats autonomes</text>
</svg>
