<svg xmlns="http://www.w3.org/2000/svg" xmlns:xlink="http://www.w3.org/1999/xlink" version="1.1" width="1000" height="1000" viewBox="0 0 1000 1000" xml:space="preserve">
<desc>Created with Fabric.js 3.5.0</desc>
<defs>
</defs>
<rect x="0" y="0" width="100%" height="100%" fill="rgba(255,255,255,0)"/>
<g transform="matrix(5.1072 0 0 5.1072 499.9956 499.9999)" id="221074">
<path style="stroke: none; stroke-width: 1; stroke-dasharray: none; stroke-linecap: butt; stroke-dashoffset: 0; stroke-linejoin: miter; stroke-miterlimit: 4; is-custom-font: none; font-file-url: none; fill: rgb(57,66,134); fill-rule: nonzero; opacity: 1;" vector-effect="non-scaling-stroke" transform=" translate(-89.0001, -1)" d="M 171.686 1.62259 C 151.889 1.53313 132.103 1.40532 112.306 1.35967 C 83.5206 1.29394 54.7128 1.20631 26.0055 1.6938 C 20.1881 1.79239 14.3707 1.88369 8.56444 1.98594 C 4.00878 2.06445 1.17267 1.81431 0.201248 1.2337 C -0.613858 0.746213 1.1168 0.315318 4.13157 0.408434 C 14.5716 0.727951 24.7661 0.25872 35.0833 0.216727 C 54.4337 0.136391 73.7841 0.0359651 93.1456 0.00492633 C 107.282 -0.0169834 121.44 0.0377927 135.576 0.0980444 C 147.266 0.149167 158.946 0.258711 170.636 0.344524 C 171.318 0.350002 172.043 0.35366 172.658 0.39748 C 175.069 0.570932 178.732 0.66952 177.872 1.22457 C 177.459 1.48931 174.176 1.63721 172.188 1.83622 C 172.021 1.76501 171.865 1.6938 171.697 1.62259 H 171.686 Z" stroke-linecap="round"/>
</g>
</svg>