<svg xmlns="http://www.w3.org/2000/svg" viewBox="0 0 178 2" fill="none" preserveAspectRatio="none" width="178px" height="2px">
    <path d="M171.686 1.62259C151.889 1.53313 132.103 1.40532 112.306 1.35967C83.5206 1.29394 54.7128 1.20631 26.0055 1.6938C20.1881 1.79239 14.3707 1.88369 8.56444 1.98594C4.00878 2.06445 1.17267 1.81431 0.201248 1.2337C-0.613858 0.746213 1.1168 0.315318 4.13157 0.408434C14.5716 0.727951 24.7661 0.25872 35.0833 0.216727C54.4337 0.136391 73.7841 0.0359651 93.1456 0.00492633C107.282 -0.0169834 121.44 0.0377927 135.576 0.0980444C147.266 0.149167 158.946 0.258711 170.636 0.344524C171.318 0.350002 172.043 0.35366 172.658 0.39748C175.069 0.570932 178.732 0.66952 177.872 1.22457C177.459 1.48931 174.176 1.63721 172.188 1.83622C172.021 1.76501 171.865 1.6938 171.697 1.62259H171.686Z" fill="#FE1F24"/>
</svg>