<?xml version="1.0" encoding="UTF-8"?>
<!DOCTYPE svg PUBLIC "-//W3C//DTD SVG 1.1//EN" "http://www.w3.org/Graphics/SVG/1.1/DTD/svg11.dtd">
<svg xmlns="http://www.w3.org/2000/svg" version="1.1" width="660px" height="660px" style="shape-rendering:geometricPrecision; text-rendering:geometricPrecision; image-rendering:optimizeQuality; fill-rule:evenodd; clip-rule:evenodd" xmlns:xlink="http://www.w3.org/1999/xlink">
<g><path style="opacity:1" fill="#93345b" d="M 345.5,16.5 C 353.507,16.3336 361.507,16.5003 369.5,17C 373.002,17.0196 376.002,18.1863 378.5,20.5C 375.096,29.9356 371.763,39.4356 368.5,49C 361.812,48.9033 355.146,48.2366 348.5,47C 341.733,46.2 335.066,46.7 328.5,48.5C 329.376,49.2508 330.376,49.7508 331.5,50C 330.944,50.3826 330.611,50.8826 330.5,51.5C 326.833,51.5 323.167,51.5 319.5,51.5C 317.59,50.316 317.257,48.816 318.5,47C 324.477,46.1691 330.477,45.6691 336.5,45.5C 339.212,35.7424 342.212,26.0757 345.5,16.5 Z"/></g>
<g><path style="opacity:1" fill="#843660" d="M 335.5,12.5 C 333.302,13.1653 330.969,13.8319 328.5,14.5C 334.061,16.0229 339.728,16.6895 345.5,16.5C 342.212,26.0757 339.212,35.7424 336.5,45.5C 330.477,45.6691 324.477,46.1691 318.5,47C 317.257,48.816 317.59,50.316 319.5,51.5C 306.454,51.4069 293.454,52.0736 280.5,53.5C 278.717,52.8865 277.384,51.7198 276.5,50C 282.969,49.4015 289.302,48.2348 295.5,46.5C 298.581,37.6679 301.581,28.8346 304.5,20C 302.527,19.5045 300.527,19.3379 298.5,19.5C 297.929,17.64 297.929,15.9733 298.5,14.5C 310.77,12.9573 323.103,12.2906 335.5,12.5 Z"/></g>
<g><path style="opacity:1" fill="#9b3151" d="M 335.5,12.5 C 355.269,11.8987 374.936,12.8987 394.5,15.5C 393.517,16.8503 392.184,17.8503 390.5,18.5C 390.709,19.086 391.043,19.586 391.5,20C 398.217,21.0052 404.884,22.1719 411.5,23.5C 411.611,24.1174 411.944,24.6174 412.5,25C 408.852,35.7441 405.519,46.5775 402.5,57.5C 391.88,55.1775 381.213,53.1775 370.5,51.5C 370.5,52.5 370.5,53.5 370.5,54.5C 357.274,52.1826 343.941,51.1826 330.5,51.5C 330.611,50.8826 330.944,50.3826 331.5,50C 330.376,49.7508 329.376,49.2508 328.5,48.5C 335.066,46.7 341.733,46.2 348.5,47C 355.146,48.2366 361.812,48.9033 368.5,49C 371.763,39.4356 375.096,29.9356 378.5,20.5C 376.002,18.1863 373.002,17.0196 369.5,17C 361.507,16.5003 353.507,16.3336 345.5,16.5C 339.728,16.6895 334.061,16.0229 328.5,14.5C 330.969,13.8319 333.302,13.1653 335.5,12.5 Z"/></g>
<g><path style="opacity:1" fill="#783867" d="M 298.5,14.5 C 297.929,15.9733 297.929,17.64 298.5,19.5C 300.527,19.3379 302.527,19.5045 304.5,20C 301.581,28.8346 298.581,37.6679 295.5,46.5C 289.302,48.2348 282.969,49.4015 276.5,50C 277.384,51.7198 278.717,52.8865 280.5,53.5C 273.226,54.8389 265.893,56.5056 258.5,58.5C 257.287,58.2528 256.62,57.5862 256.5,56.5C 257.978,56.762 259.311,56.4287 260.5,55.5C 258.619,54.238 257.286,52.5713 256.5,50.5C 258.786,42.5161 261.453,34.6828 264.5,27C 263.207,26.51 261.873,26.3433 260.5,26.5C 260.433,25.0413 260.766,23.7079 261.5,22.5C 273.649,19.0464 285.983,16.3798 298.5,14.5 Z"/></g>
<g><path style="opacity:1" fill="#a32d4a" d="M 411.5,23.5 C 416.668,25.4441 422.002,26.7774 427.5,27.5C 429.858,29.1286 432.524,30.2952 435.5,31C 434.137,32.9449 433.303,35.1116 433,37.5C 432.667,41.1667 432.333,44.8333 432,48.5C 429.599,54.3682 427.599,60.3682 426,66.5C 425.617,67.056 425.117,67.3893 424.5,67.5C 421.965,66.6513 419.465,65.6513 417,64.5C 416.5,64.8333 416,65.1667 415.5,65.5C 416.127,66.4168 416.461,67.4168 416.5,68.5C 401.253,63.1926 385.92,58.526 370.5,54.5C 370.5,53.5 370.5,52.5 370.5,51.5C 381.213,53.1775 391.88,55.1775 402.5,57.5C 405.519,46.5775 408.852,35.7441 412.5,25C 411.944,24.6174 411.611,24.1174 411.5,23.5 Z"/></g>
<g><path style="opacity:1" fill="#6b386b" d="M 261.5,22.5 C 260.766,23.7079 260.433,25.0413 260.5,26.5C 261.873,26.3433 263.207,26.51 264.5,27C 261.453,34.6828 258.786,42.5161 256.5,50.5C 257.286,52.5713 258.619,54.238 260.5,55.5C 259.311,56.4287 257.978,56.762 256.5,56.5C 245.738,50.1276 235.738,42.7943 226.5,34.5C 229.888,32.1394 233.554,30.3061 237.5,29C 245.4,26.3881 253.4,24.2214 261.5,22.5 Z"/></g>
<g><path style="opacity:1" fill="#ac2c47" d="M 427.5,27.5 C 438.274,30.6633 448.941,34.3299 459.5,38.5C 460.641,40.4213 460.808,42.4213 460,44.5C 456.335,56.1692 452.835,67.8358 449.5,79.5C 448.127,79.6567 446.793,79.49 445.5,79C 438.727,74.6161 431.727,70.7828 424.5,67.5C 425.117,67.3893 425.617,67.056 426,66.5C 427.599,60.3682 429.599,54.3682 432,48.5C 432.333,44.8333 432.667,41.1667 433,37.5C 433.303,35.1116 434.137,32.9449 435.5,31C 432.524,30.2952 429.858,29.1286 427.5,27.5 Z"/></g>
<g><path style="opacity:1" fill="#ab253b" d="M 394.5,15.5 C 421.663,20.1205 447.663,28.1205 472.5,39.5C 471.448,39.3505 470.448,39.5172 469.5,40C 470.859,41.2045 471.859,42.7045 472.5,44.5C 475.451,45.4962 478.117,46.8295 480.5,48.5C 476.112,63.4992 471.612,78.4992 467,93.5C 466.617,94.056 466.117,94.3893 465.5,94.5C 461.811,90.813 457.811,87.4797 453.5,84.5C 451.729,85.0354 451.396,85.8687 452.5,87C 451.906,87.4643 451.239,87.631 450.5,87.5C 439.4,80.6198 428.067,74.2865 416.5,68.5C 416.461,67.4168 416.127,66.4168 415.5,65.5C 416,65.1667 416.5,64.8333 417,64.5C 419.465,65.6513 421.965,66.6513 424.5,67.5C 431.727,70.7828 438.727,74.6161 445.5,79C 446.793,79.49 448.127,79.6567 449.5,79.5C 452.835,67.8358 456.335,56.1692 460,44.5C 460.808,42.4213 460.641,40.4213 459.5,38.5C 448.941,34.3299 438.274,30.6633 427.5,27.5C 422.002,26.7774 416.668,25.4441 411.5,23.5C 404.884,22.1719 398.217,21.0052 391.5,20C 391.043,19.586 390.709,19.086 390.5,18.5C 392.184,17.8503 393.517,16.8503 394.5,15.5 Z"/></g>
<g><path style="opacity:0.954" fill="#543063" d="M 143.5,116.5 C 142.5,115.833 141.5,115.167 140.5,114.5C 156.11,95.7212 173.776,79.2212 193.5,65C 183.338,69.4205 173.671,74.9205 164.5,81.5C 164.904,80.2436 165.571,79.0769 166.5,78C 166.164,76.9701 165.497,76.4701 164.5,76.5C 184.142,62.6788 205.476,52.0121 228.5,44.5C 228.719,45.675 228.386,46.675 227.5,47.5C 206.934,59.9532 187.6,74.1199 169.5,90C 160.686,98.6481 152.019,107.481 143.5,116.5 Z"/></g>
<g><path style="opacity:1" fill="#ba253a" d="M 480.5,48.5 C 490.319,52.6668 499.653,57.6668 508.5,63.5C 495.178,106.456 482.011,149.456 469,192.5C 467.286,198.369 465.12,204.035 462.5,209.5C 454.494,214.338 445.827,216.505 436.5,216C 435.291,212.975 435.791,210.141 438,207.5C 448.39,193.443 458.39,179.11 468,164.5C 474.389,153.036 477.889,140.703 478.5,127.5C 478.669,114.664 474.335,103.664 465.5,94.5C 466.117,94.3893 466.617,94.056 467,93.5C 471.612,78.4992 476.112,63.4992 480.5,48.5 Z"/></g>
<g><path style="opacity:1" fill="#bf1f34" d="M 508.5,63.5 C 517.415,68.7571 525.748,74.7571 533.5,81.5C 522.214,115.859 511.214,150.359 500.5,185C 500.743,185.902 501.077,186.735 501.5,187.5C 498.129,189.846 494.796,192.179 491.5,194.5C 482.065,199.933 472.398,204.933 462.5,209.5C 465.12,204.035 467.286,198.369 469,192.5C 482.011,149.456 495.178,106.456 508.5,63.5 Z"/></g>
<g><path style="opacity:1" fill="#c41b2f" d="M 533.5,81.5 C 537.456,83.4854 541.122,85.9854 544.5,89C 546.373,90.7038 548.04,92.5372 549.5,94.5C 541.017,118.947 533.35,143.614 526.5,168.5C 518.475,175.186 510.141,181.519 501.5,187.5C 501.077,186.735 500.743,185.902 500.5,185C 511.214,150.359 522.214,115.859 533.5,81.5 Z"/></g>
<g><path style="opacity:1" fill="#c91629" d="M 549.5,94.5 C 555.409,98.9018 560.909,103.902 566,109.5C 567.534,113.711 567.867,118.044 567,122.5C 560.128,136.048 550.961,147.881 539.5,158C 535.292,161.713 530.959,165.213 526.5,168.5C 533.35,143.614 541.017,118.947 549.5,94.5 Z"/></g>
<g><path style="opacity:0.994" fill="#b00e18" d="M 472.5,39.5 C 508.992,55.1637 541.159,77.1637 569,105.5C 572.788,111.832 573.455,118.499 571,125.5C 568.366,130.147 565.699,134.813 563,139.5C 542.651,163.023 519.151,182.69 492.5,198.5C 491.766,197.292 491.433,195.959 491.5,194.5C 494.796,192.179 498.129,189.846 501.5,187.5C 510.141,181.519 518.475,175.186 526.5,168.5C 530.959,165.213 535.292,161.713 539.5,158C 550.961,147.881 560.128,136.048 567,122.5C 567.867,118.044 567.534,113.711 566,109.5C 560.909,103.902 555.409,98.9018 549.5,94.5C 548.04,92.5372 546.373,90.7038 544.5,89C 541.122,85.9854 537.456,83.4854 533.5,81.5C 525.748,74.7571 517.415,68.7571 508.5,63.5C 499.653,57.6668 490.319,52.6668 480.5,48.5C 478.117,46.8295 475.451,45.4962 472.5,44.5C 471.859,42.7045 470.859,41.2045 469.5,40C 470.448,39.5172 471.448,39.3505 472.5,39.5 Z"/></g>
<g><path style="opacity:1" fill="#743b6e" d="M 140.5,114.5 C 135.034,120.091 130.034,126.091 125.5,132.5C 124.223,131.306 123.556,129.64 123.5,127.5C 124.06,122.476 124.726,117.476 125.5,112.5C 131.304,106.866 137.304,101.366 143.5,96C 150.529,91.1568 157.529,86.3235 164.5,81.5C 173.671,74.9205 183.338,69.4205 193.5,65C 173.776,79.2212 156.11,95.7212 140.5,114.5 Z"/></g>
<g><path style="opacity:0.981" fill="#a91623" d="M 465.5,94.5 C 474.335,103.664 478.669,114.664 478.5,127.5C 477.889,140.703 474.389,153.036 468,164.5C 458.39,179.11 448.39,193.443 438,207.5C 435.791,210.141 435.291,212.975 436.5,216C 445.827,216.505 454.494,214.338 462.5,209.5C 472.398,204.933 482.065,199.933 491.5,194.5C 491.433,195.959 491.766,197.292 492.5,198.5C 480.367,206.756 467.367,213.59 453.5,219C 448.762,219.512 444.095,220.345 439.5,221.5C 436.833,220.877 434.333,219.877 432,218.5C 431.333,215.167 431.333,211.833 432,208.5C 442.667,193.167 453.333,177.833 464,162.5C 468.866,153.698 472.199,144.365 474,134.5C 474.608,128.126 474.275,121.793 473,115.5C 467.85,104.193 460.35,94.8595 450.5,87.5C 451.239,87.631 451.906,87.4643 452.5,87C 451.396,85.8687 451.729,85.0354 453.5,84.5C 457.811,87.4797 461.811,90.813 465.5,94.5 Z"/></g>
<g><path style="opacity:0.998" fill="#ba0c18" d="M 470.5,349.5 C 469.312,350.684 468.145,350.684 467,349.5C 466.667,347.833 466.333,346.167 466,344.5C 462.584,345.148 459.084,345.482 455.5,345.5C 451.733,345.453 448.233,344.786 445,343.5C 444.503,345.81 444.337,348.143 444.5,350.5C 442.861,350.074 441.528,350.074 440.5,350.5C 436.011,295.451 454.011,249.285 494.5,212C 509.795,200.345 525.128,188.678 540.5,177C 556.913,163.098 571.413,147.598 584,130.5C 586.699,126.516 589.365,126.516 592,130.5C 595.606,136.707 599.939,142.373 605,147.5C 607,149.833 607,152.167 605,154.5C 596.99,166.518 587.49,177.352 576.5,187C 558.768,202.396 540.435,217.063 521.5,231C 485.572,262.265 468.572,301.765 470.5,349.5 Z"/></g>
<g><path style="opacity:0.859" fill="#43336e" d="M 164.5,76.5 C 165.497,76.4701 166.164,76.9701 166.5,78C 165.571,79.0769 164.904,80.2436 164.5,81.5C 157.529,86.3235 150.529,91.1568 143.5,96C 137.304,101.366 131.304,106.866 125.5,112.5C 111.807,123.927 99.4735,136.594 88.5,150.5C 88.472,148.418 89.1387,146.584 90.5,145C 89.9056,144.536 89.2389,144.369 88.5,144.5C 109.755,117.243 135.088,94.5767 164.5,76.5 Z"/></g>
<g><path style="opacity:1" fill="#d1081d" d="M 586.5,134.5 C 587.822,134.33 588.989,134.663 590,135.5C 592.615,139.783 595.615,143.783 599,147.5C 600.301,149.365 600.635,151.365 600,153.5C 591.275,165.23 581.442,176.064 570.5,186C 552.865,200.814 534.865,215.148 516.5,229C 484.959,256.585 468.293,291.419 466.5,333.5C 459.167,333.5 451.833,333.5 444.5,333.5C 444.213,296.186 455.713,263.186 479,234.5C 496.366,216.086 515.532,199.919 536.5,186C 551.931,173.905 566.097,160.405 579,145.5C 582.015,142.122 584.515,138.456 586.5,134.5 Z"/></g>
<g><path style="opacity:1" fill="#5d3f7d" d="M 125.5,112.5 C 124.726,117.476 124.06,122.476 123.5,127.5C 123.556,129.64 124.223,131.306 125.5,132.5C 72.8501,203.031 53.6834,282.031 68,369.5C 58.292,384.926 49.1253,400.592 40.5,416.5C 38.2457,419.004 36.9124,418.337 36.5,414.5C 46.0383,338.144 55.7049,261.811 65.5,185.5C 71.9614,173.039 79.6281,161.372 88.5,150.5C 99.4735,136.594 111.807,123.927 125.5,112.5 Z"/></g>
<g><path style="opacity:1" fill="#524082" d="M 65.5,185.5 C 55.7049,261.811 46.0383,338.144 36.5,414.5C 32.0463,401.603 28.8796,388.27 27,374.5C 20.572,324.029 26.2387,275.029 44,227.5C 49.9196,212.657 57.0862,198.657 65.5,185.5 Z"/></g>
<g><path style="opacity:0.989" fill="#0d3881" d="M 164.5,163.5 C 177.171,163.333 189.838,163.5 202.5,164C 230.338,167.853 247.838,183.353 255,210.5C 256.185,216.13 257.185,221.797 258,227.5C 258.667,271.167 258.667,314.833 258,358.5C 256.872,374.024 252.205,388.357 244,401.5C 235.952,411.444 225.785,418.277 213.5,422C 193.161,426.646 172.828,426.646 152.5,422C 125.535,412.349 110.368,393.182 107,364.5C 106.333,317.833 106.333,271.167 107,224.5C 109.612,198.737 122.445,180.237 145.5,169C 151.921,167.021 158.255,165.188 164.5,163.5 Z M 175.5,211.5 C 187.307,208.981 195.14,213.314 199,224.5C 199.667,270.5 199.667,316.5 199,362.5C 194.219,376.637 185.052,380.471 171.5,374C 168.537,371.125 166.704,367.625 166,363.5C 165.333,317.167 165.333,270.833 166,224.5C 166.897,221.708 168.063,219.041 169.5,216.5C 171.431,214.664 173.431,212.998 175.5,211.5 Z"/></g>
<g><path style="opacity:1" fill="#2457a4" d="M 252.5,222.5 C 253.055,232.491 253.388,242.491 253.5,252.5C 237.5,252.5 221.5,252.5 205.5,252.5C 205.802,249.941 205.468,247.607 204.5,245.5C 204.666,238.492 204.5,231.492 204,224.5C 199.73,210.438 190.23,204.604 175.5,207C 166.929,210.237 162.096,216.404 161,225.5C 160.501,229.821 160.334,234.154 160.5,238.5C 159.539,240.265 159.205,242.265 159.5,244.5C 143.422,244.817 127.422,244.484 111.5,243.5C 109.345,223.758 113.845,205.758 125,189.5C 136.105,177.197 149.938,170.03 166.5,168C 188.34,164.573 209.007,167.907 228.5,178C 243.153,189.133 251.153,203.966 252.5,222.5 Z"/></g>
<g><path style="opacity:0.994" fill="#0e3a82" d="M 326.5,163.5 C 345.194,162.119 363.528,163.953 381.5,169C 401.644,178.42 413.144,194.254 416,216.5C 416.591,222.498 417.091,228.498 417.5,234.5C 400.487,234.833 383.487,234.499 366.5,233.5C 364.974,217.464 356.307,210.631 340.5,213C 335.296,215.207 331.796,219.04 330,224.5C 327.587,235.104 327.087,245.771 328.5,256.5C 343.514,255.054 358.514,255.22 373.5,257C 393.726,261.889 406.893,274.389 413,294.5C 417.708,318.99 418.708,343.657 416,368.5C 413.61,401.552 396.11,420.385 363.5,425C 302.716,432.548 272.216,405.715 272,344.5C 270.915,305.131 271.582,265.798 274,226.5C 276.01,210.79 281.343,196.457 290,183.5C 299.715,172.228 311.882,165.562 326.5,163.5 Z M 338.5,301.5 C 353.725,299.014 362.225,305.347 364,320.5C 364.855,335.533 364.522,350.533 363,365.5C 359.112,380.902 349.945,385.402 335.5,379C 332.056,375.889 329.889,372.056 329,367.5C 328.333,350.833 328.333,334.167 329,317.5C 329.878,310.735 333.044,305.402 338.5,301.5 Z"/></g>
<g><path style="opacity:1" fill="#2457a4" d="M 323.5,252.5 C 308.5,252.5 293.5,252.5 278.5,252.5C 277.793,249.214 277.46,245.881 277.5,242.5C 279.488,180.363 310.822,156.53 371.5,171C 394.977,177.81 408.477,193.31 412,217.5C 412.735,221.813 413.235,226.147 413.5,230.5C 398.833,230.5 384.167,230.5 369.5,230.5C 369.994,221.987 366.661,215.487 359.5,211C 339.076,203.106 327.243,209.939 324,231.5C 323.5,238.492 323.334,245.492 323.5,252.5 Z"/></g>
<g><path style="opacity:0.996" fill="#b90c18" d="M 638.5,375.5 C 633.173,369.525 627.839,363.525 622.5,357.5C 617.315,349.797 611.648,342.463 605.5,335.5C 602.252,330.684 598.752,326.018 595,321.5C 595.624,288.351 590.957,256.017 581,224.5C 580.145,221.399 578.645,218.732 576.5,216.5C 540.087,233.413 513.587,260.08 497,296.5C 492.342,309.081 490.175,322.081 490.5,335.5C 490.5,337.833 490.5,340.167 490.5,342.5C 490.517,350.701 491.183,358.701 492.5,366.5C 494.188,372.051 494.688,377.718 494,383.5C 492.855,383.619 491.688,383.952 490.5,384.5C 487.107,364.654 485.94,344.654 487,324.5C 487.923,309.278 491.923,294.945 499,281.5C 517.193,248.915 543.527,225.582 578,211.5C 579.107,211.585 580.107,211.919 581,212.5C 589.531,233.004 594.864,254.338 597,276.5C 597.897,290.822 598.564,305.156 599,319.5C 612.382,335.88 625.382,352.547 638,369.5C 638.495,371.473 638.662,373.473 638.5,375.5 Z"/></g>
<g><path style="opacity:1" fill="#d1081e" d="M 605.5,335.5 C 602.5,335.5 599.5,335.5 596.5,335.5C 594.942,330.647 593.442,325.647 592,320.5C 588.575,325.74 585.408,331.074 582.5,336.5C 551.907,335.508 521.24,335.175 490.5,335.5C 490.175,322.081 492.342,309.081 497,296.5C 513.587,260.08 540.087,233.413 576.5,216.5C 578.645,218.732 580.145,221.399 581,224.5C 590.957,256.017 595.624,288.351 595,321.5C 598.752,326.018 602.252,330.684 605.5,335.5 Z"/></g>
<g><path style="opacity:0.861" fill="#343575" d="M 140.5,114.5 C 141.5,115.167 142.5,115.833 143.5,116.5C 123.377,141.076 106.544,167.743 93,196.5C 79.9752,227.247 71.6419,259.247 68,292.5C 67.3333,301.167 67.3333,309.833 68,318.5C 69.2523,336.544 70.5857,354.544 72,372.5C 61.9701,389.338 51.8035,406.005 41.5,422.5C 40.8505,420.565 40.5172,418.565 40.5,416.5C 49.1253,400.592 58.292,384.926 68,369.5C 53.6834,282.031 72.8501,203.031 125.5,132.5C 130.034,126.091 135.034,120.091 140.5,114.5 Z"/></g>
<g><path style="opacity:1" fill="#184e9d" d="M 204.5,245.5 C 205.468,247.607 205.802,249.941 205.5,252.5C 221.5,252.5 237.5,252.5 253.5,252.5C 253.5,259.833 253.5,267.167 253.5,274.5C 237.089,274.818 220.756,274.484 204.5,273.5C 204.5,264.167 204.5,254.833 204.5,245.5 Z"/></g>
<g><path style="opacity:1" fill="#174d9d" d="M 160.5,238.5 C 160.5,250.167 160.5,261.833 160.5,273.5C 144.244,274.484 127.911,274.818 111.5,274.5C 111.5,264.167 111.5,253.833 111.5,243.5C 127.422,244.484 143.422,244.817 159.5,244.5C 159.205,242.265 159.539,240.265 160.5,238.5 Z"/></g>
<g><path style="opacity:0.9" fill="#1c377d" d="M 88.5,144.5 C 89.2389,144.369 89.9056,144.536 90.5,145C 89.1387,146.584 88.472,148.418 88.5,150.5C 79.6281,161.372 71.9614,173.039 65.5,185.5C 57.0862,198.657 49.9196,212.657 44,227.5C 26.2387,275.029 20.572,324.029 27,374.5C 28.8796,388.27 32.0463,401.603 36.5,414.5C 36.9124,418.337 38.2457,419.004 40.5,416.5C 40.5172,418.565 40.8505,420.565 41.5,422.5C 39.0146,428.991 36.5146,428.991 34,422.5C 28.2957,408.715 24.629,394.381 23,379.5C 12.6336,304.01 27.6336,234.343 68,170.5C 74.6119,161.582 81.4453,152.916 88.5,144.5 Z"/></g>
<g><path style="opacity:1" fill="#124999" d="M 277.5,242.5 C 277.46,245.881 277.793,249.214 278.5,252.5C 293.5,252.5 308.5,252.5 323.5,252.5C 323.5,255.5 323.5,258.5 323.5,261.5C 343.015,258.341 362.348,259.174 381.5,264C 394.371,269.611 402.705,279.111 406.5,292.5C 363.5,292.5 320.5,292.5 277.5,292.5C 277.817,288.298 277.483,284.298 276.5,280.5C 276.171,267.656 276.505,254.989 277.5,242.5 Z"/></g>
<g><path style="opacity:1" fill="#0f4293" d="M 160.5,273.5 C 160.796,292.534 160.462,311.534 159.5,330.5C 143.589,330.825 127.756,330.491 112,329.5C 111.5,311.17 111.333,292.836 111.5,274.5C 127.911,274.818 144.244,274.484 160.5,273.5 Z"/></g>
<g><path style="opacity:1" fill="#0f4191" d="M 252.5,222.5 C 253.321,225.641 253.821,228.975 254,232.5C 254.782,269.846 254.615,307.179 253.5,344.5C 237.167,344.5 220.833,344.5 204.5,344.5C 204.5,320.833 204.5,297.167 204.5,273.5C 220.756,274.484 237.089,274.818 253.5,274.5C 253.5,267.167 253.5,259.833 253.5,252.5C 253.388,242.491 253.055,232.491 252.5,222.5 Z"/></g>
<g><path style="opacity:1" fill="#0e4294" d="M 276.5,280.5 C 277.483,284.298 277.817,288.298 277.5,292.5C 320.5,292.5 363.5,292.5 406.5,292.5C 410.278,299.523 411.945,307.19 411.5,315.5C 397.167,315.5 382.833,315.5 368.5,315.5C 362.432,297.077 350.432,291.91 332.5,300C 328.481,304.369 325.481,309.369 323.5,315C 308.17,315.5 292.837,315.667 277.5,315.5C 276.894,303.843 276.561,292.176 276.5,280.5 Z"/></g>
<g><path style="opacity:1" fill="#c0182b" d="M 490.5,335.5 C 521.24,335.175 551.907,335.508 582.5,336.5C 568.179,354.275 550.179,359.108 528.5,351C 520.392,347.78 512.726,343.78 505.5,339C 503.527,338.505 501.527,338.338 499.5,338.5C 499.5,339.833 499.5,341.167 499.5,342.5C 496.5,342.5 493.5,342.5 490.5,342.5C 490.5,340.167 490.5,337.833 490.5,335.5 Z"/></g>
<g><path style="opacity:0.995" fill="#b60e1a" d="M 596.5,335.5 C 598.652,346.05 599.652,356.716 599.5,367.5C 599.66,369.199 599.494,370.866 599,372.5C 597.079,369.49 596.079,366.156 596,362.5C 595.617,363.056 595.117,363.389 594.5,363.5C 595.307,353.197 593.974,343.197 590.5,333.5C 577.126,354.509 558.126,362.342 533.5,357C 526.055,354.299 518.722,351.633 511.5,349C 522.267,360.948 534.6,370.782 548.5,378.5C 548.414,379.496 548.748,380.329 549.5,381C 548.207,381.49 546.873,381.657 545.5,381.5C 541.883,380.358 538.55,378.692 535.5,376.5C 530.524,372.53 525.524,368.53 520.5,364.5C 512.826,357.825 505.826,350.492 499.5,342.5C 499.5,341.167 499.5,339.833 499.5,338.5C 501.527,338.338 503.527,338.505 505.5,339C 512.726,343.78 520.392,347.78 528.5,351C 550.179,359.108 568.179,354.275 582.5,336.5C 585.408,331.074 588.575,325.74 592,320.5C 593.442,325.647 594.942,330.647 596.5,335.5 Z"/></g>
<g><path style="opacity:1" fill="#b91829" d="M 470.5,349.5 C 471.422,355.056 472.422,360.723 473.5,366.5C 471.614,365.639 469.78,364.639 468,363.5C 467.58,359.809 467.08,356.142 466.5,352.5C 459.5,352.5 452.5,352.5 445.5,352.5C 445.5,355.167 445.5,357.833 445.5,360.5C 443.901,360.232 442.568,360.566 441.5,361.5C 440.518,358.038 440.185,354.371 440.5,350.5C 441.528,350.074 442.861,350.074 444.5,350.5C 444.337,348.143 444.503,345.81 445,343.5C 448.233,344.786 451.733,345.453 455.5,345.5C 459.084,345.482 462.584,345.148 466,344.5C 466.333,346.167 466.667,347.833 467,349.5C 468.145,350.684 469.312,350.684 470.5,349.5 Z"/></g>
<g><path style="opacity:1" fill="#ba1c30" d="M 596.5,335.5 C 599.5,335.5 602.5,335.5 605.5,335.5C 611.648,342.463 617.315,349.797 622.5,357.5C 615.167,357.5 607.833,357.5 600.5,357.5C 600.813,361.042 600.479,364.375 599.5,367.5C 599.652,356.716 598.652,346.05 596.5,335.5 Z"/></g>
<g><path style="opacity:1" fill="#b42034" d="M 490.5,342.5 C 493.5,342.5 496.5,342.5 499.5,342.5C 505.826,350.492 512.826,357.825 520.5,364.5C 510.773,363.861 501.44,364.528 492.5,366.5C 491.183,358.701 490.517,350.701 490.5,342.5 Z"/></g>
<g><path style="opacity:1" fill="#af1f33" d="M 473.5,366.5 C 473.5,367.5 473.5,368.5 473.5,369.5C 470.808,370.79 468.808,369.957 467.5,367C 460.808,366.169 454.142,366.336 447.5,367.5C 447.209,370.797 445.542,372.797 442.5,373.5C 441.979,369.519 441.646,365.519 441.5,361.5C 442.568,360.566 443.901,360.232 445.5,360.5C 445.5,357.833 445.5,355.167 445.5,352.5C 452.5,352.5 459.5,352.5 466.5,352.5C 467.08,356.142 467.58,359.809 468,363.5C 469.78,364.639 471.614,365.639 473.5,366.5 Z"/></g>
<g><path style="opacity:1" fill="#a92136" d="M 622.5,357.5 C 627.839,363.525 633.173,369.525 638.5,375.5C 638.5,382.167 638.5,388.833 638.5,395.5C 637.312,394.952 636.145,394.619 635,394.5C 634.51,393.207 634.343,391.873 634.5,390.5C 634.805,385.238 634.471,380.072 633.5,375C 621.833,374.333 610.167,374.333 598.5,375C 590.373,387.052 579.04,391.718 564.5,389C 557.654,387.569 551.32,385.069 545.5,381.5C 546.873,381.657 548.207,381.49 549.5,381C 548.748,380.329 548.414,379.496 548.5,378.5C 557.841,383.535 567.841,385.702 578.5,385C 584.584,382.873 589.751,379.373 594,374.5C 594.499,370.848 594.665,367.182 594.5,363.5C 595.117,363.389 595.617,363.056 596,362.5C 596.079,366.156 597.079,369.49 599,372.5C 599.494,370.866 599.66,369.199 599.5,367.5C 600.479,364.375 600.813,361.042 600.5,357.5C 607.833,357.5 615.167,357.5 622.5,357.5 Z"/></g>
<g><path style="opacity:1" fill="#a5243b" d="M 520.5,364.5 C 525.524,368.53 530.524,372.53 535.5,376.5C 522.167,376.5 508.833,376.5 495.5,376.5C 495.126,382.537 496.126,388.203 498.5,393.5C 499.376,397.462 500.042,401.462 500.5,405.5C 499.209,405.263 498.209,405.596 497.5,406.5C 494.747,399.39 492.414,392.056 490.5,384.5C 491.688,383.952 492.855,383.619 494,383.5C 494.688,377.718 494.188,372.051 492.5,366.5C 501.44,364.528 510.773,363.861 520.5,364.5 Z"/></g>
<g><path style="opacity:1" fill="#a4243b" d="M 473.5,369.5 C 474.033,373.965 475.033,378.298 476.5,382.5C 474.958,383.301 473.292,383.634 471.5,383.5C 471.714,381.856 471.38,380.356 470.5,379C 463.167,378.333 455.833,378.333 448.5,379C 447.953,379.925 447.287,380.758 446.5,381.5C 445.473,380.209 444.473,380.209 443.5,381.5C 442.908,378.873 442.575,376.206 442.5,373.5C 445.542,372.797 447.209,370.797 447.5,367.5C 454.142,366.336 460.808,366.169 467.5,367C 468.808,369.957 470.808,370.79 473.5,369.5 Z"/></g>
<g><path style="opacity:1" fill="#0c3376" d="M 112.5,361.5 C 128.514,361.167 144.514,361.501 160.5,362.5C 164.213,378.535 174.213,384.701 190.5,381C 197.565,376.754 202.231,370.587 204.5,362.5C 220.152,361.501 235.819,361.167 251.5,361.5C 250.657,394.278 233.99,413.778 201.5,420C 189.5,420.667 177.5,420.667 165.5,420C 132.557,414.228 114.891,394.728 112.5,361.5 Z"/></g>
<g><path style="opacity:1" fill="#0c3376" d="M 278.5,362.5 C 293.5,362.5 308.5,362.5 323.5,362.5C 325.953,382.786 336.953,389.953 356.5,384C 358.624,382.878 360.457,381.378 362,379.5C 365.257,374.227 367.423,368.561 368.5,362.5C 382.833,362.5 397.167,362.5 411.5,362.5C 411.137,397.695 393.471,417.195 358.5,421C 341.625,423.06 325.292,421.06 309.5,415C 290.045,402.928 279.712,385.428 278.5,362.5 Z"/></g>
<g><path style="opacity:1" fill="#9b2944" d="M 634.5,390.5 C 589.167,390.5 543.833,390.5 498.5,390.5C 498.5,391.5 498.5,392.5 498.5,393.5C 496.126,388.203 495.126,382.537 495.5,376.5C 508.833,376.5 522.167,376.5 535.5,376.5C 538.55,378.692 541.883,380.358 545.5,381.5C 551.32,385.069 557.654,387.569 564.5,389C 579.04,391.718 590.373,387.052 598.5,375C 610.167,374.333 621.833,374.333 633.5,375C 634.471,380.072 634.805,385.238 634.5,390.5 Z"/></g>
<g><path style="opacity:1" fill="#992843" d="M 476.5,382.5 C 476.405,385.697 477.072,388.697 478.5,391.5C 475.807,395.702 473.974,395.369 473,390.5C 465.558,391.813 458.058,391.813 450.5,390.5C 449.381,385.833 447.715,385.833 445.5,390.5C 444.99,387.461 444.323,384.461 443.5,381.5C 444.473,380.209 445.473,380.209 446.5,381.5C 447.287,380.758 447.953,379.925 448.5,379C 455.833,378.333 463.167,378.333 470.5,379C 471.38,380.356 471.714,381.856 471.5,383.5C 473.292,383.634 474.958,383.301 476.5,382.5 Z"/></g>
<g><path style="opacity:1" fill="#8d2c4a" d="M 634.5,390.5 C 634.343,391.873 634.51,393.207 635,394.5C 636.145,394.619 637.312,394.952 638.5,395.5C 638.5,399.833 638.5,404.167 638.5,408.5C 637.312,407.952 636.145,407.619 635,407.5C 634.51,406.207 634.343,404.873 634.5,403.5C 590.167,403.5 545.833,403.5 501.5,403.5C 501.619,408.456 503.952,411.956 508.5,414C 507.099,414.41 505.766,414.91 504.5,415.5C 499.585,414.578 497.252,411.578 497.5,406.5C 498.209,405.596 499.209,405.263 500.5,405.5C 500.042,401.462 499.376,397.462 498.5,393.5C 498.5,392.5 498.5,391.5 498.5,390.5C 543.833,390.5 589.167,390.5 634.5,390.5 Z"/></g>
<g><path style="opacity:1" fill="#8c2b49" d="M 478.5,391.5 C 478.279,395.832 479.279,399.832 481.5,403.5C 479.418,403.528 477.584,402.861 476,401.5C 475.517,402.448 475.351,403.448 475.5,404.5C 468.137,404.831 460.803,404.497 453.5,403.5C 451.969,400.884 449.969,400.217 447.5,401.5C 446.674,397.864 446.008,394.197 445.5,390.5C 447.715,385.833 449.381,385.833 450.5,390.5C 458.058,391.813 465.558,391.813 473,390.5C 473.974,395.369 475.807,395.702 478.5,391.5 Z"/></g>
<g><path style="opacity:1" fill="#792e53" d="M 481.5,403.5 C 483.523,410.921 485.856,418.254 488.5,425.5C 476.829,425.667 465.162,425.5 453.5,425C 451.312,417.23 449.312,409.397 447.5,401.5C 449.969,400.217 451.969,400.884 453.5,403.5C 460.803,404.497 468.137,404.831 475.5,404.5C 475.351,403.448 475.517,402.448 476,401.5C 477.584,402.861 479.418,403.528 481.5,403.5 Z"/></g>
<g><path style="opacity:1" fill="#812e51" d="M 638.5,408.5 C 638.5,411.5 638.5,414.5 638.5,417.5C 637.778,417.918 637.278,418.584 637,419.5C 636.167,418.667 635.333,417.833 634.5,417C 594.5,416.333 554.5,416.333 514.5,417C 516.5,418.333 518.5,419.667 520.5,421C 525.833,421.333 531.167,421.667 536.5,422C 529.586,422.739 522.919,423.239 516.5,423.5C 513.394,422.232 510.394,420.732 507.5,419C 506.29,417.961 505.29,416.794 504.5,415.5C 505.766,414.91 507.099,414.41 508.5,414C 503.952,411.956 501.619,408.456 501.5,403.5C 545.833,403.5 590.167,403.5 634.5,403.5C 634.343,404.873 634.51,406.207 635,407.5C 636.145,407.619 637.312,407.952 638.5,408.5 Z"/></g>
<g><path style="opacity:1" fill="#772e54" d="M 638.5,417.5 C 638.5,420.167 638.5,422.833 638.5,425.5C 598.499,425.667 558.499,425.5 518.5,425C 517.584,424.722 516.918,424.222 516.5,423.5C 522.919,423.239 529.586,422.739 536.5,422C 531.167,421.667 525.833,421.333 520.5,421C 518.5,419.667 516.5,418.333 514.5,417C 554.5,416.333 594.5,416.333 634.5,417C 635.333,417.833 636.167,418.667 637,419.5C 637.278,418.584 637.778,417.918 638.5,417.5 Z"/></g>
<g><path style="opacity:0.989" fill="#0d367f" d="M 87.5,439.5 C 99.7252,438.891 104.559,444.557 102,456.5C 98.6064,457.456 95.1064,457.789 91.5,457.5C 91.6633,455.143 91.4966,452.81 91,450.5C 89.0985,449.614 87.2651,449.947 85.5,451.5C 84.5721,452.768 84.4054,454.101 85,455.5C 88.6742,459.507 92.6742,463.174 97,466.5C 100.68,475.571 98.8466,483.404 91.5,490C 84.7885,493.177 78.1219,493.177 71.5,490C 69.3481,487.576 68.0148,484.743 67.5,481.5C 68.4226,478.553 69.0893,475.553 69.5,472.5C 72.8333,472.5 76.1667,472.5 79.5,472.5C 79.5567,474.884 79.2234,477.218 78.5,479.5C 80.5645,484.382 83.3979,484.715 87,480.5C 87.6667,478.5 87.6667,476.5 87,474.5C 82,470.833 77.6667,466.5 74,461.5C 72.1975,450.077 76.6975,442.744 87.5,439.5 Z"/></g>
<g><path style="opacity:0.97" fill="#0d367e" d="M 247.5,439.5 C 261.013,439.047 265.679,445.38 261.5,458.5C 258.167,458.5 254.833,458.5 251.5,458.5C 251.892,455.278 251.392,452.278 250,449.5C 248.108,450.13 246.441,451.13 245,452.5C 242.034,461.99 240.367,471.657 240,481.5C 241.667,482.833 243.333,482.833 245,481.5C 246.908,478.794 247.741,475.794 247.5,472.5C 251.167,472.5 254.833,472.5 258.5,472.5C 257.07,489.886 248.07,495.72 231.5,490C 230.789,488.745 229.956,487.579 229,486.5C 228.814,474.611 230.481,462.944 234,451.5C 236.592,445.278 241.092,441.278 247.5,439.5 Z"/></g>
<g><path style="opacity:0.986" fill="#0d377f" d="M 107.5,441.5 C 111.167,441.5 114.833,441.5 118.5,441.5C 119.581,446.473 120.581,451.473 121.5,456.5C 125.139,452.053 128.139,447.22 130.5,442C 134.152,441.501 137.818,441.335 141.5,441.5C 141.509,443.308 141.009,444.975 140,446.5C 134.417,454.664 129.084,462.997 124,471.5C 122.878,477.869 121.545,484.202 120,490.5C 116.927,491.617 113.76,491.784 110.5,491C 109.941,490.275 109.608,489.442 109.5,488.5C 111.526,482.485 112.859,476.318 113.5,470C 110.976,460.598 108.976,451.098 107.5,441.5 Z"/></g>
<g><path style="opacity:0.981" fill="#0d3780" d="M 182.5,441.5 C 189.841,441.334 197.174,441.5 204.5,442C 209.039,444.419 211.039,448.252 210.5,453.5C 209.453,462.659 207.62,471.659 205,480.5C 202.833,485.333 199.333,488.833 194.5,491C 187.174,491.5 179.841,491.666 172.5,491.5C 175.744,474.775 179.078,458.109 182.5,441.5 Z M 191.5,450.5 C 198,449.499 200.5,452.165 199,458.5C 197.735,465.666 195.901,472.666 193.5,479.5C 191.149,481.229 188.482,481.896 185.5,481.5C 187.176,471.109 189.176,460.775 191.5,450.5 Z"/></g>
<g><path style="opacity:0.995" fill="#0d367f" d="M 459.5,439.5 C 474.394,438.908 479.894,445.908 476,460.5C 474.744,468.38 472.744,476.047 470,483.5C 464.913,491.244 457.746,494.078 448.5,492C 442.68,490.715 439.68,487.048 439.5,481C 440.809,468.97 443.975,457.47 449,446.5C 451.998,443.262 455.498,440.929 459.5,439.5 Z M 461.5,449.5 C 464.795,450.136 466.128,452.136 465.5,455.5C 464.492,462.529 463.326,469.529 462,476.5C 460.667,479.833 458.333,482.167 455,483.5C 452.215,482.712 451.049,480.879 451.5,478C 452.318,469.267 454.151,460.767 457,452.5C 458.409,451.219 459.909,450.219 461.5,449.5 Z"/></g>
<g><path style="opacity:0.993" fill="#0d367e" d="M 534.5,439.5 C 544.389,438.249 550.056,442.416 551.5,452C 550.309,463.932 547.475,475.432 543,486.5C 536.12,492.42 528.286,493.92 519.5,491C 518.333,489.833 517.167,488.667 516,487.5C 514.585,472.647 517.252,458.647 524,445.5C 527.069,442.554 530.569,440.554 534.5,439.5 Z M 535.5,449.5 C 538.717,449.885 540.384,451.719 540.5,455C 539.22,463.292 537.387,471.458 535,479.5C 532.742,482.736 529.909,483.736 526.5,482.5C 526.334,478.486 526.501,474.486 527,470.5C 528.632,465.97 529.632,461.304 530,456.5C 530.905,453.315 532.739,450.982 535.5,449.5 Z"/></g>
<g><path style="opacity:0.985" fill="#0c3780" d="M 144.5,441.5 C 148.167,441.5 151.833,441.5 155.5,441.5C 156.859,449.843 158.359,458.177 160,466.5C 162.153,458.555 163.987,450.555 165.5,442.5C 168.768,441.513 172.102,441.18 175.5,441.5C 172.751,457.904 169.585,474.237 166,490.5C 162.333,491.833 158.667,491.833 155,490.5C 153.818,482.44 152.318,474.44 150.5,466.5C 148.834,474.496 147.167,482.496 145.5,490.5C 142.216,491.657 138.882,491.824 135.5,491C 135.043,490.586 134.709,490.086 134.5,489.5C 138.694,473.669 142.027,457.669 144.5,441.5 Z"/></g>
<g><path style="opacity:0.984" fill="#0c377f" d="M 219.5,441.5 C 223.226,441.177 226.893,441.511 230.5,442.5C 227.002,458.145 223.502,473.812 220,489.5C 216.851,491.362 213.351,492.029 209.5,491.5C 212.2,474.701 215.533,458.034 219.5,441.5 Z"/></g>
<g><path style="opacity:0.983" fill="#0c3780" d="M 277.5,441.5 C 281.833,441.5 286.167,441.5 290.5,441.5C 291.265,458.155 291.599,474.822 291.5,491.5C 287.833,491.5 284.167,491.5 280.5,491.5C 280.5,487.167 280.5,482.833 280.5,478.5C 277.813,478.336 275.146,478.503 272.5,479C 271.422,483.232 269.755,487.232 267.5,491C 263.638,491.913 259.972,491.58 256.5,490C 263.787,473.979 270.787,457.812 277.5,441.5 Z M 280.5,458.5 C 281.483,462.298 281.817,466.298 281.5,470.5C 279.473,470.662 277.473,470.495 275.5,470C 277.655,466.366 279.321,462.533 280.5,458.5 Z"/></g>
<g><path style="opacity:0.99" fill="#0c377f" d="M 297.5,441.5 C 307.5,441.5 317.5,441.5 327.5,441.5C 327.296,444.518 326.963,447.518 326.5,450.5C 322.894,450.211 319.394,450.544 316,451.5C 313.389,464.107 311.056,476.774 309,489.5C 305.817,491.523 302.317,492.023 298.5,491C 298.043,490.586 297.709,490.086 297.5,489.5C 300.352,476.538 303.018,463.538 305.5,450.5C 302.5,450.5 299.5,450.5 296.5,450.5C 296.368,447.43 296.701,444.43 297.5,441.5 Z"/></g>
<g><path style="opacity:0.99" fill="#0d377f" d="M 353.5,441.5 C 357.833,441.5 362.167,441.5 366.5,441.5C 367.441,458.139 367.775,474.805 367.5,491.5C 364.15,491.665 360.817,491.498 357.5,491C 356.194,487.198 356.194,483.365 357.5,479.5C 354.572,478.516 351.572,478.183 348.5,478.5C 347.664,483.024 345.997,487.191 343.5,491C 339.638,491.913 335.972,491.58 332.5,490C 339.8,473.922 346.8,457.755 353.5,441.5 Z M 356.5,458.5 C 357.483,462.298 357.817,466.298 357.5,470.5C 355.833,470.5 354.167,470.5 352.5,470.5C 353.632,466.438 354.965,462.438 356.5,458.5 Z"/></g>
<g><path style="opacity:0.987" fill="#0d377e" d="M 380.5,441.5 C 383.833,441.5 387.167,441.5 390.5,441.5C 388.748,454.094 386.415,466.594 383.5,479C 384.852,483.43 387.352,484.263 391,481.5C 392.439,479.725 393.439,477.725 394,475.5C 396.401,464.184 398.568,452.851 400.5,441.5C 404.167,441.5 407.833,441.5 411.5,441.5C 408.854,455.94 405.688,470.273 402,484.5C 398.296,490.63 392.796,493.297 385.5,492.5C 377.609,493.238 373.276,489.738 372.5,482C 374.211,468.28 376.877,454.78 380.5,441.5 Z"/></g>
<g><path style="opacity:0.987" fill="#0c377f" d="M 414.5,441.5 C 424.5,441.5 434.5,441.5 444.5,441.5C 444.492,444.545 444.159,447.545 443.5,450.5C 440.102,450.18 436.768,450.513 433.5,451.5C 430.239,464.397 427.406,477.397 425,490.5C 421.927,491.617 418.76,491.784 415.5,491C 414.919,490.107 414.585,489.107 414.5,488C 417.485,475.551 420.151,463.051 422.5,450.5C 419.5,450.5 416.5,450.5 413.5,450.5C 413.368,447.43 413.701,444.43 414.5,441.5 Z"/></g>
<g><path style="opacity:0.978" fill="#0d377f" d="M 484.5,441.5 C 488.226,441.177 491.893,441.511 495.5,442.5C 497.656,451.42 499.489,460.42 501,469.5C 502.208,460.465 503.541,451.465 505,442.5C 508.786,441.205 512.62,441.205 516.5,442.5C 512.752,458.745 509.419,475.078 506.5,491.5C 502.833,491.5 499.167,491.5 495.5,491.5C 494.048,483.505 492.548,475.505 491,467.5C 489.172,475.143 487.506,482.81 486,490.5C 482.392,491.949 478.892,491.783 475.5,490C 478.451,473.848 481.451,457.681 484.5,441.5 Z"/></g>
<g><path style="opacity:0.98" fill="#0c377f" d="M 559.5,441.5 C 564.5,441.5 569.5,441.5 574.5,441.5C 574.334,449.84 574.5,458.173 575,466.5C 578.699,458.398 582.199,450.232 585.5,442C 590.489,441.501 595.489,441.334 600.5,441.5C 597.501,457.837 594.334,474.17 591,490.5C 587.927,491.617 584.76,491.784 581.5,491C 580.978,490.439 580.645,489.772 580.5,489C 582.495,480.858 583.995,472.691 585,464.5C 581.908,473.357 578.242,482.024 574,490.5C 571.667,491.833 569.333,491.833 567,490.5C 566.667,481.833 566.333,473.167 566,464.5C 563.95,473.472 562.116,482.472 560.5,491.5C 557.15,491.665 553.817,491.498 550.5,491C 549.978,490.439 549.645,489.772 549.5,489C 553.666,473.332 556.999,457.499 559.5,441.5 Z"/></g>
<g><path style="opacity:0.968" fill="#0c3680" d="M 606.5,441.5 C 615.173,441.334 623.84,441.5 632.5,442C 632.833,442.333 633.167,442.667 633.5,443C 632.446,445.382 631.779,447.882 631.5,450.5C 626.167,450.5 620.833,450.5 615.5,450.5C 614.793,453.786 614.46,457.119 614.5,460.5C 618.833,460.5 623.167,460.5 627.5,460.5C 627.296,463.518 626.963,466.518 626.5,469.5C 621.5,469.5 616.5,469.5 611.5,469.5C 611.152,473.557 610.486,477.557 609.5,481.5C 614.179,481.334 618.845,481.501 623.5,482C 624.265,484.836 623.932,487.67 622.5,490.5C 614.193,491.498 605.86,491.831 597.5,491.5C 600.177,474.788 603.177,458.121 606.5,441.5 Z"/></g>
<g><path style="opacity:1" fill="#0e3f90" d="M 525.5,504.5 C 524.537,505.363 524.537,506.03 525.5,506.5C 535.06,503.431 544.393,503.931 553.5,508C 558.039,513.113 559.372,518.947 557.5,525.5C 552.5,525.5 547.5,525.5 542.5,525.5C 543.558,517.725 540.225,514.558 532.5,516C 527.268,518.633 525.435,522.799 527,528.5C 534,534.5 541,540.5 548,546.5C 548.49,547.793 548.657,549.127 548.5,550.5C 532.428,552.545 519.928,546.878 511,533.5C 510.211,526.776 511.711,520.609 515.5,515C 514.552,514.517 513.552,514.351 512.5,514.5C 515.135,508.855 519.468,505.522 525.5,504.5 Z"/></g>
<g><path style="opacity:1" fill="#cd091c" d="M 196.5,555.5 C 196.5,554.833 196.833,554.5 197.5,554.5C 199.318,556.078 200.318,555.578 200.5,553C 204.268,537.195 207.934,521.362 211.5,505.5C 222.888,505.117 234.221,505.617 245.5,507C 250.585,507.445 254.085,509.945 256,514.5C 257.212,541.446 244.378,552.779 217.5,548.5C 216.417,552.085 215.751,555.751 215.5,559.5C 210.167,559.5 204.833,559.5 199.5,559.5C 199.532,557.381 198.532,556.048 196.5,555.5 Z M 227.5,518.5 C 237.658,518.135 240.158,522.468 235,531.5C 232.045,535.277 228.212,536.443 223.5,535C 225.149,529.59 226.483,524.09 227.5,518.5 Z"/></g>
<g><path style="opacity:1" fill="#0e4092" d="M 404.5,510.5 C 405.167,510.5 405.5,510.833 405.5,511.5C 404.782,513.246 403.782,513.912 402.5,513.5C 404.739,522.803 403.073,531.303 397.5,539C 391.141,539.831 384.807,539.664 378.5,538.5C 383.626,535.1 386.626,530.267 387.5,524C 387.381,518.048 384.381,515.548 378.5,516.5C 376.5,516.667 374.5,516.833 372.5,517C 370.756,523.701 368.756,530.368 366.5,537C 366.645,537.772 366.978,538.439 367.5,539C 362.177,539.499 356.844,539.666 351.5,539.5C 353.835,528.136 356.168,516.802 358.5,505.5C 368.839,505.334 379.172,505.5 389.5,506C 394.435,507.812 399.435,509.312 404.5,510.5 Z M 374.5,518.5 C 383.928,517.671 386.762,521.671 383,530.5C 380.377,534.903 376.543,536.569 371.5,535.5C 372.291,529.795 373.291,524.129 374.5,518.5 Z"/></g>
<g><path style="opacity:1" fill="#0d3b87" d="M 422.5,503.5 C 431.833,503.5 441.167,503.5 450.5,503.5C 450.5,529.5 450.5,555.5 450.5,581.5C 443.167,581.5 435.833,581.5 428.5,581.5C 428.5,576.5 428.5,571.5 428.5,566.5C 424.154,566.334 419.821,566.501 415.5,567C 413.697,571.44 412.031,575.94 410.5,580.5C 402.833,581.833 395.167,581.833 387.5,580.5C 398.932,554.642 410.599,528.975 422.5,503.5 Z M 430.5,528.5 C 431.04,535.987 431.04,543.654 430.5,551.5C 427.833,551.5 425.167,551.5 422.5,551.5C 424.884,543.733 427.551,536.066 430.5,528.5 Z"/></g>
<g><path style="opacity:0.874" fill="#0d3b88" d="M 458.5,503.5 C 476.179,503.167 493.846,503.5 511.5,504.5C 509.845,510.097 508.512,515.764 507.5,521.5C 502.125,521.172 496.792,521.505 491.5,522.5C 486.679,541.763 482.179,561.097 478,580.5C 470.558,581.813 463.058,581.813 455.5,580.5C 460.796,561.059 465.13,541.392 468.5,521.5C 463.456,521.827 458.456,521.494 453.5,520.5C 455.296,514.836 456.963,509.17 458.5,503.5 Z"/></g>
<g><path style="opacity:1" fill="#0d3a86" d="M 404.5,510.5 C 399.435,509.312 394.435,507.812 389.5,506C 379.172,505.5 368.839,505.334 358.5,505.5C 356.168,516.802 353.835,528.136 351.5,539.5C 356.844,539.666 362.177,539.499 367.5,539C 366.978,538.439 366.645,537.772 366.5,537C 368.756,530.368 370.756,523.701 372.5,517C 374.5,516.833 376.5,516.667 378.5,516.5C 384.381,515.548 387.381,518.048 387.5,524C 386.626,530.267 383.626,535.1 378.5,538.5C 384.807,539.664 391.141,539.831 397.5,539C 403.073,531.303 404.739,522.803 402.5,513.5C 403.782,513.912 404.782,513.246 405.5,511.5C 408.607,540.395 395.607,554.062 366.5,552.5C 364.245,562.107 362.245,571.773 360.5,581.5C 353.167,581.5 345.833,581.5 338.5,581.5C 344.168,555.825 350.002,530.158 356,504.5C 369.79,503.175 383.624,503.341 397.5,505C 400.266,506.371 402.599,508.204 404.5,510.5 Z M 374.5,518.5 C 373.291,524.129 372.291,529.795 371.5,535.5C 376.543,536.569 380.377,534.903 383,530.5C 386.762,521.671 383.928,517.671 374.5,518.5 Z"/></g>
<g><path style="opacity:1" fill="#0d3b87" d="M 316.5,540.5 C 324.5,540.5 332.5,540.5 340.5,540.5C 338.964,545.777 337.63,551.111 336.5,556.5C 332.667,556.833 328.833,557.167 325,557.5C 320.656,557.638 316.489,557.138 312.5,556C 314.528,551.029 315.862,545.862 316.5,540.5 Z"/></g>
<g><path style="opacity:0.985" fill="#b30c16" d="M 170.5,501.5 C 178.832,500.684 186.832,501.851 194.5,505C 198.776,508.823 200.776,513.657 200.5,519.5C 200.034,522.492 199.701,525.492 199.5,528.5C 192.833,528.5 186.167,528.5 179.5,528.5C 182.352,520.357 179.685,517.357 171.5,519.5C 168.848,521.592 168.014,524.258 169,527.5C 176.914,532.744 184.248,538.744 191,545.5C 195.028,562.946 188.861,575.112 172.5,582C 162.587,584.473 152.92,583.806 143.5,580C 136.701,572.651 135.701,564.484 140.5,555.5C 147.134,554.503 153.8,554.17 160.5,554.5C 160.045,557.203 159.378,559.87 158.5,562.5C 160.639,567.03 163.806,567.697 168,564.5C 171.229,559.128 170.395,554.294 165.5,550C 145.649,540.609 142.316,527.109 155.5,509.5C 160.017,505.802 165.017,503.135 170.5,501.5 Z"/></g>
<g><path style="opacity:1" fill="#d0081d" d="M 171.5,504.5 C 179.741,503.461 187.408,504.961 194.5,509C 195.46,510.419 196.293,511.919 197,513.5C 197.499,517.486 197.666,521.486 197.5,525.5C 192.5,525.5 187.5,525.5 182.5,525.5C 183.971,519.142 181.471,515.808 175,515.5C 167.829,517.013 165.162,521.346 167,528.5C 173.22,533.705 179.386,539.039 185.5,544.5C 177.855,545.665 170.188,545.831 162.5,545C 149.922,538.483 147.089,528.983 154,516.5C 158.4,510.244 164.234,506.244 171.5,504.5 Z"/></g>
<g><path style="opacity:0.979" fill="#b20c16" d="M 196.5,555.5 C 198.532,556.048 199.532,557.381 199.5,559.5C 204.833,559.5 210.167,559.5 215.5,559.5C 215.751,555.751 216.417,552.085 217.5,548.5C 244.378,552.779 257.212,541.446 256,514.5C 254.085,509.945 250.585,507.445 245.5,507C 234.221,505.617 222.888,505.117 211.5,505.5C 207.934,521.362 204.268,537.195 200.5,553C 200.318,555.578 199.318,556.078 197.5,554.5C 201.375,537.543 205.041,520.543 208.5,503.5C 222.534,503.183 236.534,503.683 250.5,505C 257.375,507.384 260.375,512.217 259.5,519.5C 257.644,544.125 244.311,555.125 219.5,552.5C 217.607,562.195 215.607,571.862 213.5,581.5C 206.167,581.5 198.833,581.5 191.5,581.5C 193.352,572.867 195.019,564.2 196.5,555.5 Z M 227.5,518.5 C 226.483,524.09 225.149,529.59 223.5,535C 228.212,536.443 232.045,535.277 235,531.5C 240.158,522.468 237.658,518.135 227.5,518.5 Z"/></g>
<g><path style="opacity:0.984" fill="#b20c16" d="M 269.5,503.5 C 283.532,503.209 297.532,503.709 311.5,505C 318.758,509.101 321.592,515.267 320,523.5C 318.276,537.544 310.776,546.711 297.5,551C 291.565,552.239 285.565,552.739 279.5,552.5C 277.497,562.173 275.497,571.839 273.5,581.5C 266.167,581.5 258.833,581.5 251.5,581.5C 256.868,555.36 262.868,529.36 269.5,503.5 Z M 287.5,518.5 C 297.709,517.731 300.376,522.064 295.5,531.5C 292.683,535.008 289.017,536.341 284.5,535.5C 285.287,529.804 286.287,524.137 287.5,518.5 Z"/></g>
<g><path style="opacity:1" fill="#cd081d" d="M 271.5,506.5 C 282.838,506.333 294.172,506.5 305.5,507C 316.084,509.389 319.584,515.889 316,526.5C 314.354,537.662 308.187,544.828 297.5,548C 285.256,548.103 273.256,549.27 261.5,551.5C 264.724,536.494 268.058,521.494 271.5,506.5 Z M 287.5,518.5 C 286.287,524.137 285.287,529.804 284.5,535.5C 289.017,536.341 292.683,535.008 295.5,531.5C 300.376,522.064 297.709,517.731 287.5,518.5 Z"/></g>
<g><path style="opacity:1" fill="#0d3982" d="M 512.5,514.5 C 513.552,514.351 514.552,514.517 515.5,515C 511.711,520.609 510.211,526.776 511,533.5C 519.928,546.878 532.428,552.545 548.5,550.5C 548.657,549.127 548.49,547.793 548,546.5C 541,540.5 534,534.5 527,528.5C 525.435,522.799 527.268,518.633 532.5,516C 540.225,514.558 543.558,517.725 542.5,525.5C 547.5,525.5 552.5,525.5 557.5,525.5C 559.372,518.947 558.039,513.113 553.5,508C 544.393,503.931 535.06,503.431 525.5,506.5C 524.537,506.03 524.537,505.363 525.5,504.5C 527.148,503.073 529.148,502.24 531.5,502C 539.498,500.709 547.164,501.709 554.5,505C 560.463,511.417 562.129,518.917 559.5,527.5C 552.866,528.497 546.2,528.83 539.5,528.5C 540.008,525.824 540.175,523.157 540,520.5C 536.381,517.657 533.048,517.99 530,521.5C 529.289,523.899 529.456,526.232 530.5,528.5C 539.054,533.218 546.22,539.551 552,547.5C 552.962,573.973 540.129,585.806 513.5,583C 507.319,582.331 502.486,579.497 499,574.5C 498.182,568.098 498.516,561.765 500,555.5C 506.744,554.521 513.578,554.188 520.5,554.5C 520.045,557.203 519.378,559.87 518.5,562.5C 519.852,566.254 522.518,567.421 526.5,566C 530.115,562.375 530.949,558.208 529,553.5C 524.255,549.878 519.422,546.378 514.5,543C 505.948,534.077 505.281,524.577 512.5,514.5 Z"/></g>
<g><path style="opacity:0.995" fill="#0d3882" d="M 159.5,591.5 C 207.089,611.639 256.756,619.805 308.5,616C 337.432,612.94 364.765,604.94 390.5,592C 432.832,591.5 475.165,591.333 517.5,591.5C 517.719,592.675 517.386,593.675 516.5,594.5C 430.1,650.09 337.433,662.923 238.5,633C 210.306,623.402 183.972,610.402 159.5,594C 158.402,593.23 158.402,592.397 159.5,591.5 Z"/></g>
<g><path style="opacity:1" fill="#0d4093" d="M 391.5,596.5 C 428.835,596.333 466.168,596.5 503.5,597C 432.969,639.631 356.969,653.297 275.5,638C 248.484,632.507 222.817,623.507 198.5,611C 217.929,615.224 237.596,618.557 257.5,621C 295.484,623.525 332.484,618.858 368.5,607C 376.311,603.574 383.977,600.074 391.5,596.5 Z"/></g>
</svg>
